<svg width="277" height="65" viewBox="0 0 277 65" fill="none" xmlns="http://www.w3.org/2000/svg">
<line x1="2.78259" y1="13.5" x2="42.6929" y2="13.5" stroke="white" stroke-width="2"/>
<path d="M2 4.18788C19.0781 -5.25793 25.1774 9.85595 43.4754 4.18788" stroke="white" stroke-width="2"/>
<path d="M43.4754 54.25C43.4754 59.6348 34.1908 64 22.7377 64C11.2846 64 2 59.6348 2 54.25" stroke="white" stroke-width="2"/>
<path d="M44.258 19.7793C51.3715 19.7631 57.1539 26.1062 57.1732 33.947C57.1926 41.7878 51.4417 48.1571 44.3282 48.1732" stroke="white" stroke-width="2"/>
<line x1="1.78259" y1="54.25" x2="1.78259" y2="3.25" stroke="white" stroke-width="2"/>
<line x1="43.2579" y1="54.25" x2="43.2579" y2="3.25" stroke="white" stroke-width="2"/>
<line x1="15.0859" y1="55.75" x2="15.0859" y2="19.75" stroke="white" stroke-width="2"/>
<line x1="30.7371" y1="55.75" x2="30.7371" y2="19.75" stroke="white" stroke-width="2"/>
<line x1="2.78259" y1="13.5" x2="42.6929" y2="13.5" stroke="white" stroke-width="2"/>
<path d="M2 4.18788C19.0781 -5.25793 25.1774 9.85595 43.4754 4.18788" stroke="white" stroke-width="2"/>
<path d="M43.4754 54.25C43.4754 59.6348 34.1908 64 22.7377 64C11.2846 64 2 59.6348 2 54.25" stroke="white" stroke-width="2"/>
<line x1="1.78259" y1="54.25" x2="1.78259" y2="3.25" stroke="white" stroke-width="2"/>
<line x1="43.2579" y1="54.25" x2="43.2579" y2="3.25" stroke="white" stroke-width="2"/>
<line x1="15.0859" y1="55.75" x2="15.0859" y2="19.75" stroke="white" stroke-width="2"/>
<line x1="30.7371" y1="55.75" x2="30.7371" y2="19.75" stroke="white" stroke-width="2"/>
<path d="M86.799 46.8438C86.583 46.8438 86.451 46.7357 86.403 46.5197L85.503 42.0557C85.503 42.0077 85.479 41.9717 85.431 41.9477C85.407 41.9237 85.371 41.9117 85.323 41.9117H78.807C78.759 41.9117 78.711 41.9237 78.663 41.9477C78.639 41.9717 78.627 42.0077 78.627 42.0557L77.691 46.5197C77.667 46.7357 77.535 46.8438 77.295 46.8438H75.459C75.339 46.8438 75.243 46.8077 75.171 46.7357C75.123 46.6637 75.111 46.5677 75.135 46.4477L80.571 21.9677C80.619 21.7517 80.751 21.6437 80.967 21.6437H83.127C83.367 21.6437 83.499 21.7517 83.523 21.9677L88.995 46.4477V46.5197C88.995 46.7357 88.887 46.8438 88.671 46.8438H86.799ZM79.131 39.6797C79.131 39.7757 79.167 39.8237 79.239 39.8237H84.891C84.963 39.8237 84.999 39.7757 84.999 39.6797L82.155 25.8197C82.131 25.7477 82.107 25.7117 82.083 25.7117C82.059 25.7117 82.035 25.7477 82.011 25.8197L79.131 39.6797ZM93.2098 46.8438C92.9698 46.8438 92.8498 46.7237 92.8498 46.4837V22.0037C92.8498 21.7637 92.9698 21.6437 93.2098 21.6437H95.0458C95.2858 21.6437 95.4058 21.7637 95.4058 22.0037V44.4678C95.4058 44.5637 95.4538 44.6117 95.5498 44.6117H103.794C104.034 44.6117 104.154 44.7317 104.154 44.9717V46.4837C104.154 46.7237 104.034 46.8438 103.794 46.8438H93.2098ZM107.483 46.8438C107.243 46.8438 107.123 46.7237 107.123 46.4837V22.0037C107.123 21.7637 107.243 21.6437 107.483 21.6437H109.319C109.559 21.6437 109.679 21.7637 109.679 22.0037V44.4678C109.679 44.5637 109.727 44.6117 109.823 44.6117H118.067C118.307 44.6117 118.427 44.7317 118.427 44.9717V46.4837C118.427 46.7237 118.307 46.8438 118.067 46.8438H107.483ZM134.112 47.1318C132.264 47.1318 130.788 46.5918 129.684 45.5117C128.58 44.4077 128.028 42.9437 128.028 41.1197V27.3677C128.028 25.5437 128.58 24.0917 129.684 23.0117C130.788 21.9077 132.264 21.3557 134.112 21.3557C135.96 21.3557 137.436 21.9077 138.54 23.0117C139.668 24.1157 140.232 25.5797 140.232 27.4037V28.9517C140.232 29.1917 140.112 29.3117 139.872 29.3117H138.036C137.796 29.3117 137.676 29.1917 137.676 28.9517V27.3317C137.676 26.2037 137.352 25.3037 136.704 24.6317C136.056 23.9357 135.192 23.5877 134.112 23.5877C133.056 23.5877 132.192 23.9357 131.52 24.6317C130.872 25.3277 130.548 26.2277 130.548 27.3317V41.1557C130.548 42.2597 130.872 43.1597 131.52 43.8557C132.192 44.5517 133.056 44.8997 134.112 44.8997C135.192 44.8997 136.056 44.5637 136.704 43.8917C137.352 43.1957 137.676 42.2837 137.676 41.1557V36.5477C137.676 36.4517 137.628 36.4037 137.532 36.4037H134.436C134.196 36.4037 134.076 36.2837 134.076 36.0437V34.5317C134.076 34.2917 134.196 34.1717 134.436 34.1717H139.872C140.112 34.1717 140.232 34.2917 140.232 34.5317V41.1197C140.232 42.9437 139.668 44.4077 138.54 45.5117C137.436 46.5918 135.96 47.1318 134.112 47.1318ZM150.215 47.1318C148.367 47.1318 146.867 46.5557 145.715 45.4037C144.587 44.2517 144.023 42.7277 144.023 40.8317V27.6557C144.023 25.7597 144.587 24.2357 145.715 23.0837C146.867 21.9317 148.367 21.3557 150.215 21.3557C152.087 21.3557 153.599 21.9317 154.751 23.0837C155.903 24.2357 156.479 25.7597 156.479 27.6557V40.8317C156.479 42.7037 155.903 44.2277 154.751 45.4037C153.599 46.5557 152.087 47.1318 150.215 47.1318ZM150.215 44.8997C151.319 44.8997 152.207 44.5397 152.879 43.8197C153.575 43.0757 153.923 42.1277 153.923 40.9757V27.5477C153.923 26.3717 153.575 25.4237 152.879 24.7037C152.207 23.9597 151.319 23.5877 150.215 23.5877C149.135 23.5877 148.259 23.9597 147.587 24.7037C146.915 25.4237 146.579 26.3717 146.579 27.5477V40.9757C146.579 42.1277 146.915 43.0757 147.587 43.8197C148.259 44.5397 149.135 44.8997 150.215 44.8997ZM166.633 47.1318C164.785 47.1318 163.285 46.5557 162.133 45.4037C161.005 44.2517 160.441 42.7277 160.441 40.8317V27.6557C160.441 25.7597 161.005 24.2357 162.133 23.0837C163.285 21.9317 164.785 21.3557 166.633 21.3557C168.505 21.3557 170.017 21.9317 171.169 23.0837C172.321 24.2357 172.897 25.7597 172.897 27.6557V40.8317C172.897 42.7037 172.321 44.2277 171.169 45.4037C170.017 46.5557 168.505 47.1318 166.633 47.1318ZM166.633 44.8997C167.737 44.8997 168.625 44.5397 169.297 43.8197C169.993 43.0757 170.341 42.1277 170.341 40.9757V27.5477C170.341 26.3717 169.993 25.4237 169.297 24.7037C168.625 23.9597 167.737 23.5877 166.633 23.5877C165.553 23.5877 164.677 23.9597 164.005 24.7037C163.333 25.4237 162.997 26.3717 162.997 27.5477V40.9757C162.997 42.1277 163.333 43.0757 164.005 43.8197C164.677 44.5397 165.553 44.8997 166.633 44.8997ZM177.831 46.8438C177.591 46.8438 177.471 46.7237 177.471 46.4837V22.0037C177.471 21.7637 177.591 21.6437 177.831 21.6437H183.375C185.223 21.6437 186.699 22.2557 187.803 23.4797C188.907 24.6797 189.459 26.2997 189.459 28.3398V40.1477C189.459 42.1877 188.907 43.8197 187.803 45.0437C186.699 46.2437 185.223 46.8438 183.375 46.8438H177.831ZM180.027 44.4678C180.027 44.5637 180.075 44.6117 180.171 44.6117L183.339 44.5757C184.395 44.5757 185.235 44.1677 185.859 43.3517C186.507 42.5357 186.843 41.4317 186.867 40.0397V28.4477C186.867 27.0317 186.555 25.9157 185.931 25.0997C185.307 24.2837 184.443 23.8757 183.339 23.8757H180.171C180.075 23.8757 180.027 23.9237 180.027 24.0197V44.4678ZM213.724 40.0037C213.748 42.1637 213.172 43.8437 211.996 45.0437C210.82 46.2437 209.248 46.8438 207.28 46.8438H201.772C201.532 46.8438 201.412 46.7237 201.412 46.4837V22.0037C201.412 21.7637 201.532 21.6437 201.772 21.6437H206.956C209.02 21.6437 210.64 22.2197 211.816 23.3717C212.992 24.4997 213.58 26.1197 213.58 28.2317C213.58 30.9197 212.584 32.7557 210.592 33.7397C210.544 33.7637 210.52 33.7877 210.52 33.8117C210.52 33.8357 210.532 33.8597 210.556 33.8837C212.668 35.1077 213.724 37.1477 213.724 40.0037ZM204.112 23.8757C204.016 23.8757 203.968 23.9237 203.968 24.0197V32.6957C203.968 32.7917 204.016 32.8397 204.112 32.8397H206.956C208.252 32.8397 209.26 32.4557 209.98 31.6877C210.7 30.9197 211.06 29.8397 211.06 28.4477C211.06 27.0077 210.7 25.8917 209.98 25.0997C209.26 24.2837 208.252 23.8757 206.956 23.8757H204.112ZM207.1 44.5757C208.372 44.5757 209.368 44.1557 210.088 43.3157C210.808 42.4517 211.168 41.2517 211.168 39.7157C211.168 38.1557 210.808 36.9437 210.088 36.0797C209.368 35.2157 208.372 34.7837 207.1 34.7837H204.112C204.016 34.7837 203.968 34.8317 203.968 34.9277V44.4317C203.968 44.5277 204.016 44.5757 204.112 44.5757H207.1ZM227.664 46.8438C227.448 46.8438 227.304 46.7477 227.232 46.5557L223.524 35.3597C223.5 35.2877 223.452 35.2517 223.38 35.2517H220.284C220.188 35.2517 220.14 35.2997 220.14 35.3957V46.4837C220.14 46.7237 220.02 46.8438 219.78 46.8438H217.944C217.704 46.8438 217.584 46.7237 217.584 46.4837V21.9677C217.584 21.7277 217.704 21.6077 217.944 21.6077H223.884C225.636 21.6077 227.052 22.2437 228.132 23.5157C229.212 24.7877 229.752 26.4557 229.752 28.5197C229.752 30.1037 229.416 31.4597 228.744 32.5877C228.072 33.7157 227.16 34.4957 226.008 34.9277C225.912 34.9517 225.876 35.0117 225.9 35.1077L229.824 46.4477L229.86 46.5917C229.86 46.7597 229.752 46.8438 229.536 46.8438H227.664ZM220.284 23.8397C220.188 23.8397 220.14 23.8877 220.14 23.9837V33.0557C220.14 33.1517 220.188 33.1997 220.284 33.1997H223.524C224.628 33.1997 225.516 32.7797 226.188 31.9397C226.86 31.0757 227.196 29.9477 227.196 28.5557C227.196 27.1157 226.86 25.9757 226.188 25.1357C225.516 24.2717 224.628 23.8397 223.524 23.8397H220.284ZM244.957 23.5157C244.957 23.7557 244.837 23.8757 244.597 23.8757H236.245C236.149 23.8757 236.101 23.9237 236.101 24.0197V32.9477C236.101 33.0437 236.149 33.0917 236.245 33.0917H241.501C241.741 33.0917 241.861 33.2117 241.861 33.4517V34.9997C241.861 35.2397 241.741 35.3597 241.501 35.3597H236.245C236.149 35.3597 236.101 35.4077 236.101 35.5037V44.4678C236.101 44.5637 236.149 44.6117 236.245 44.6117H244.597C244.837 44.6117 244.957 44.7317 244.957 44.9717V46.4837C244.957 46.7237 244.837 46.8438 244.597 46.8438H233.905C233.665 46.8438 233.545 46.7237 233.545 46.4837V22.0037C233.545 21.7637 233.665 21.6437 233.905 21.6437H244.597C244.837 21.6437 244.957 21.7637 244.957 22.0037V23.5157ZM252.579 46.8438C252.363 46.8438 252.231 46.7357 252.183 46.5197L247.431 22.0397V21.9677C247.431 21.7517 247.539 21.6437 247.755 21.6437H249.663C249.903 21.6437 250.035 21.7517 250.059 21.9677L253.443 40.9037C253.467 40.9517 253.491 40.9757 253.515 40.9757C253.539 40.9757 253.563 40.9517 253.587 40.9037L256.503 21.9677C256.551 21.7517 256.671 21.6437 256.863 21.6437H258.519C258.735 21.6437 258.855 21.7517 258.879 21.9677L261.939 40.9037C261.963 40.9517 261.987 40.9757 262.011 40.9757C262.035 40.9757 262.059 40.9517 262.083 40.9037L265.179 21.9677C265.227 21.7517 265.347 21.6437 265.539 21.6437H267.447C267.567 21.6437 267.651 21.6797 267.699 21.7517C267.771 21.8237 267.795 21.9197 267.771 22.0397L263.307 46.5197C263.283 46.7357 263.151 46.8438 262.911 46.8438H261.147C260.955 46.8438 260.835 46.7357 260.787 46.5197L257.763 27.5117C257.739 27.4637 257.703 27.4397 257.655 27.4397C257.631 27.4397 257.619 27.4637 257.619 27.5117L254.667 46.5197C254.643 46.7357 254.523 46.8438 254.307 46.8438H252.579Z" fill="white"/>
</svg>
