<svg width="266" height="66" viewBox="0 0 266 66" fill="none" xmlns="http://www.w3.org/2000/svg">
<line x1="2.75128" y1="13.7142" x2="41.0652" y2="13.7142" stroke="#FF520B" stroke-width="2"/>
<path d="M2 4.23848C18.395 -5.35726 24.2503 9.99652 41.8164 4.23848" stroke="#FF520B" stroke-width="2"/>
<path d="M41.8164 55.0952C41.8164 60.5655 32.9032 65 21.9082 65C10.9132 65 2 60.5655 2 55.0952" stroke="#FF520B" stroke-width="2"/>
<path d="M42.5677 20.0774C49.3966 20.061 54.9477 26.5047 54.9663 34.47C54.9849 42.4352 49.464 48.9056 42.6351 48.922" stroke="#FF520B" stroke-width="2"/>
<line x1="1.75128" y1="55.0952" x2="1.75128" y2="3.28569" stroke="#FF520B" stroke-width="2"/>
<line x1="41.5676" y1="55.0952" x2="41.5676" y2="3.28569" stroke="#FF520B" stroke-width="2"/>
<line x1="14.5225" y1="56.619" x2="14.5225" y2="20.0476" stroke="#FF520B" stroke-width="2"/>
<line x1="29.5476" y1="56.619" x2="29.5476" y2="20.0476" stroke="#FF520B" stroke-width="2"/>
<line x1="2.75128" y1="13.7142" x2="41.0652" y2="13.7142" stroke="#FF520B" stroke-width="2"/>
<path d="M2 4.23848C18.395 -5.35726 24.2503 9.99652 41.8164 4.23848" stroke="#FF520B" stroke-width="2"/>
<path d="M41.8164 55.0952C41.8164 60.5655 32.9032 65 21.9082 65C10.9132 65 2 60.5655 2 55.0952" stroke="#FF520B" stroke-width="2"/>
<line x1="1.75128" y1="55.0952" x2="1.75128" y2="3.28569" stroke="#FF520B" stroke-width="2"/>
<line x1="41.5676" y1="55.0952" x2="41.5676" y2="3.28569" stroke="#FF520B" stroke-width="2"/>
<line x1="14.5225" y1="56.619" x2="14.5225" y2="20.0476" stroke="#FF520B" stroke-width="2"/>
<line x1="29.5476" y1="56.619" x2="29.5476" y2="20.0476" stroke="#FF520B" stroke-width="2"/>
<path d="M83.924 47C83.708 47 83.576 46.892 83.528 46.676L82.628 42.212C82.628 42.164 82.604 42.128 82.556 42.104C82.532 42.08 82.496 42.068 82.448 42.068H75.932C75.884 42.068 75.836 42.08 75.788 42.104C75.764 42.128 75.752 42.164 75.752 42.212L74.816 46.676C74.792 46.892 74.66 47 74.42 47H72.584C72.464 47 72.368 46.964 72.296 46.892C72.248 46.82 72.236 46.724 72.26 46.604L77.696 22.124C77.744 21.908 77.876 21.8 78.092 21.8H80.252C80.492 21.8 80.624 21.908 80.648 22.124L86.12 46.604V46.676C86.12 46.892 86.012 47 85.796 47H83.924ZM76.256 39.836C76.256 39.932 76.292 39.98 76.364 39.98H82.016C82.088 39.98 82.124 39.932 82.124 39.836L79.28 25.976C79.256 25.904 79.232 25.868 79.208 25.868C79.184 25.868 79.16 25.904 79.136 25.976L76.256 39.836ZM90.3348 47C90.0948 47 89.9748 46.88 89.9748 46.64V22.16C89.9748 21.92 90.0948 21.8 90.3348 21.8H92.1708C92.4108 21.8 92.5308 21.92 92.5308 22.16V44.624C92.5308 44.72 92.5788 44.768 92.6748 44.768H100.919C101.159 44.768 101.279 44.888 101.279 45.128V46.64C101.279 46.88 101.159 47 100.919 47H90.3348ZM104.608 47C104.368 47 104.248 46.88 104.248 46.64V22.16C104.248 21.92 104.368 21.8 104.608 21.8H106.444C106.684 21.8 106.804 21.92 106.804 22.16V44.624C106.804 44.72 106.852 44.768 106.948 44.768H115.192C115.432 44.768 115.552 44.888 115.552 45.128V46.64C115.552 46.88 115.432 47 115.192 47H104.608ZM131.237 47.288C129.389 47.288 127.913 46.748 126.809 45.668C125.705 44.564 125.153 43.1 125.153 41.276V27.524C125.153 25.7 125.705 24.248 126.809 23.168C127.913 22.064 129.389 21.512 131.237 21.512C133.085 21.512 134.561 22.064 135.665 23.168C136.793 24.272 137.357 25.736 137.357 27.56V29.108C137.357 29.348 137.237 29.468 136.997 29.468H135.161C134.921 29.468 134.801 29.348 134.801 29.108V27.488C134.801 26.36 134.477 25.46 133.829 24.788C133.181 24.092 132.317 23.744 131.237 23.744C130.181 23.744 129.317 24.092 128.645 24.788C127.997 25.484 127.673 26.384 127.673 27.488V41.312C127.673 42.416 127.997 43.316 128.645 44.012C129.317 44.708 130.181 45.056 131.237 45.056C132.317 45.056 133.181 44.72 133.829 44.048C134.477 43.352 134.801 42.44 134.801 41.312V36.704C134.801 36.608 134.753 36.56 134.657 36.56H131.561C131.321 36.56 131.201 36.44 131.201 36.2V34.688C131.201 34.448 131.321 34.328 131.561 34.328H136.997C137.237 34.328 137.357 34.448 137.357 34.688V41.276C137.357 43.1 136.793 44.564 135.665 45.668C134.561 46.748 133.085 47.288 131.237 47.288ZM147.34 47.288C145.492 47.288 143.992 46.712 142.84 45.56C141.712 44.408 141.148 42.884 141.148 40.988V27.812C141.148 25.916 141.712 24.392 142.84 23.24C143.992 22.088 145.492 21.512 147.34 21.512C149.212 21.512 150.724 22.088 151.876 23.24C153.028 24.392 153.604 25.916 153.604 27.812V40.988C153.604 42.86 153.028 44.384 151.876 45.56C150.724 46.712 149.212 47.288 147.34 47.288ZM147.34 45.056C148.444 45.056 149.332 44.696 150.004 43.976C150.7 43.232 151.048 42.284 151.048 41.132V27.704C151.048 26.528 150.7 25.58 150.004 24.86C149.332 24.116 148.444 23.744 147.34 23.744C146.26 23.744 145.384 24.116 144.712 24.86C144.04 25.58 143.704 26.528 143.704 27.704V41.132C143.704 42.284 144.04 43.232 144.712 43.976C145.384 44.696 146.26 45.056 147.34 45.056ZM163.758 47.288C161.91 47.288 160.41 46.712 159.258 45.56C158.13 44.408 157.566 42.884 157.566 40.988V27.812C157.566 25.916 158.13 24.392 159.258 23.24C160.41 22.088 161.91 21.512 163.758 21.512C165.63 21.512 167.142 22.088 168.294 23.24C169.446 24.392 170.022 25.916 170.022 27.812V40.988C170.022 42.86 169.446 44.384 168.294 45.56C167.142 46.712 165.63 47.288 163.758 47.288ZM163.758 45.056C164.862 45.056 165.75 44.696 166.422 43.976C167.118 43.232 167.466 42.284 167.466 41.132V27.704C167.466 26.528 167.118 25.58 166.422 24.86C165.75 24.116 164.862 23.744 163.758 23.744C162.678 23.744 161.802 24.116 161.13 24.86C160.458 25.58 160.122 26.528 160.122 27.704V41.132C160.122 42.284 160.458 43.232 161.13 43.976C161.802 44.696 162.678 45.056 163.758 45.056ZM174.956 47C174.716 47 174.596 46.88 174.596 46.64V22.16C174.596 21.92 174.716 21.8 174.956 21.8H180.5C182.348 21.8 183.824 22.412 184.928 23.636C186.032 24.836 186.584 26.456 186.584 28.496V40.304C186.584 42.344 186.032 43.976 184.928 45.2C183.824 46.4 182.348 47 180.5 47H174.956ZM177.152 44.624C177.152 44.72 177.2 44.768 177.296 44.768L180.464 44.732C181.52 44.732 182.36 44.324 182.984 43.508C183.632 42.692 183.968 41.588 183.992 40.196V28.604C183.992 27.188 183.68 26.072 183.056 25.256C182.432 24.44 181.568 24.032 180.464 24.032H177.296C177.2 24.032 177.152 24.08 177.152 24.176V44.624ZM210.849 40.16C210.873 42.32 210.297 44 209.121 45.2C207.945 46.4 206.373 47 204.405 47H198.897C198.657 47 198.537 46.88 198.537 46.64V22.16C198.537 21.92 198.657 21.8 198.897 21.8H204.081C206.145 21.8 207.765 22.376 208.941 23.528C210.117 24.656 210.705 26.276 210.705 28.388C210.705 31.076 209.709 32.912 207.717 33.896C207.669 33.92 207.645 33.944 207.645 33.968C207.645 33.992 207.657 34.016 207.681 34.04C209.793 35.264 210.849 37.304 210.849 40.16ZM201.237 24.032C201.141 24.032 201.093 24.08 201.093 24.176V32.852C201.093 32.948 201.141 32.996 201.237 32.996H204.081C205.377 32.996 206.385 32.612 207.105 31.844C207.825 31.076 208.185 29.996 208.185 28.604C208.185 27.164 207.825 26.048 207.105 25.256C206.385 24.44 205.377 24.032 204.081 24.032H201.237ZM204.225 44.732C205.497 44.732 206.493 44.312 207.213 43.472C207.933 42.608 208.293 41.408 208.293 39.872C208.293 38.312 207.933 37.1 207.213 36.236C206.493 35.372 205.497 34.94 204.225 34.94H201.237C201.141 34.94 201.093 34.988 201.093 35.084V44.588C201.093 44.684 201.141 44.732 201.237 44.732H204.225ZM224.789 47C224.573 47 224.429 46.904 224.357 46.712L220.649 35.516C220.625 35.444 220.577 35.408 220.505 35.408H217.409C217.313 35.408 217.265 35.456 217.265 35.552V46.64C217.265 46.88 217.145 47 216.905 47H215.069C214.829 47 214.709 46.88 214.709 46.64V22.124C214.709 21.884 214.829 21.764 215.069 21.764H221.009C222.761 21.764 224.177 22.4 225.257 23.672C226.337 24.944 226.877 26.612 226.877 28.676C226.877 30.26 226.541 31.616 225.869 32.744C225.197 33.872 224.285 34.652 223.133 35.084C223.037 35.108 223.001 35.168 223.025 35.264L226.949 46.604L226.985 46.748C226.985 46.916 226.877 47 226.661 47H224.789ZM217.409 23.996C217.313 23.996 217.265 24.044 217.265 24.14V33.212C217.265 33.308 217.313 33.356 217.409 33.356H220.649C221.753 33.356 222.641 32.936 223.313 32.096C223.985 31.232 224.321 30.104 224.321 28.712C224.321 27.272 223.985 26.132 223.313 25.292C222.641 24.428 221.753 23.996 220.649 23.996H217.409ZM242.082 23.672C242.082 23.912 241.962 24.032 241.722 24.032H233.37C233.274 24.032 233.226 24.08 233.226 24.176V33.104C233.226 33.2 233.274 33.248 233.37 33.248H238.626C238.866 33.248 238.986 33.368 238.986 33.608V35.156C238.986 35.396 238.866 35.516 238.626 35.516H233.37C233.274 35.516 233.226 35.564 233.226 35.66V44.624C233.226 44.72 233.274 44.768 233.37 44.768H241.722C241.962 44.768 242.082 44.888 242.082 45.128V46.64C242.082 46.88 241.962 47 241.722 47H231.03C230.79 47 230.67 46.88 230.67 46.64V22.16C230.67 21.92 230.79 21.8 231.03 21.8H241.722C241.962 21.8 242.082 21.92 242.082 22.16V23.672ZM249.704 47C249.488 47 249.356 46.892 249.308 46.676L244.556 22.196V22.124C244.556 21.908 244.664 21.8 244.88 21.8H246.788C247.028 21.8 247.16 21.908 247.184 22.124L250.568 41.06C250.592 41.108 250.616 41.132 250.64 41.132C250.664 41.132 250.688 41.108 250.712 41.06L253.628 22.124C253.676 21.908 253.796 21.8 253.988 21.8H255.644C255.86 21.8 255.98 21.908 256.004 22.124L259.064 41.06C259.088 41.108 259.112 41.132 259.136 41.132C259.16 41.132 259.184 41.108 259.208 41.06L262.304 22.124C262.352 21.908 262.472 21.8 262.664 21.8H264.572C264.692 21.8 264.776 21.836 264.824 21.908C264.896 21.98 264.92 22.076 264.896 22.196L260.432 46.676C260.408 46.892 260.276 47 260.036 47H258.272C258.08 47 257.96 46.892 257.912 46.676L254.888 27.668C254.864 27.62 254.828 27.596 254.78 27.596C254.756 27.596 254.744 27.62 254.744 27.668L251.792 46.676C251.768 46.892 251.648 47 251.432 47H249.704Z" fill="#FF520B"/>
</svg>
