<svg width="360" height="90" viewBox="0 0 360 90" fill="none" xmlns="http://www.w3.org/2000/svg">
<path d="M102.232 66C101.944 66 101.768 65.856 101.704 65.568L100.504 59.616C100.504 59.552 100.472 59.504 100.408 59.472C100.376 59.44 100.328 59.424 100.264 59.424H91.576C91.512 59.424 91.448 59.44 91.384 59.472C91.352 59.504 91.336 59.552 91.336 59.616L90.088 65.568C90.056 65.856 89.88 66 89.56 66H87.112C86.952 66 86.824 65.952 86.728 65.856C86.664 65.76 86.648 65.632 86.68 65.472L93.928 32.832C93.992 32.544 94.168 32.4 94.456 32.4H97.336C97.656 32.4 97.832 32.544 97.864 32.832L105.16 65.472V65.568C105.16 65.856 105.016 66 104.728 66H102.232ZM92.008 56.448C92.008 56.576 92.056 56.64 92.152 56.64H99.688C99.784 56.64 99.832 56.576 99.832 56.448L96.04 37.968C96.008 37.872 95.976 37.824 95.944 37.824C95.912 37.824 95.88 37.872 95.848 37.968L92.008 56.448ZM110.78 66C110.46 66 110.3 65.84 110.3 65.52V32.88C110.3 32.56 110.46 32.4 110.78 32.4H113.228C113.548 32.4 113.708 32.56 113.708 32.88V62.832C113.708 62.96 113.772 63.024 113.9 63.024H124.892C125.212 63.024 125.372 63.184 125.372 63.504V65.52C125.372 65.84 125.212 66 124.892 66H110.78ZM129.811 66C129.491 66 129.331 65.84 129.331 65.52V32.88C129.331 32.56 129.491 32.4 129.811 32.4H132.259C132.579 32.4 132.739 32.56 132.739 32.88V62.832C132.739 62.96 132.803 63.024 132.931 63.024H143.923C144.243 63.024 144.403 63.184 144.403 63.504V65.52C144.403 65.84 144.243 66 143.923 66H129.811ZM165.316 66.384C162.852 66.384 160.884 65.664 159.412 64.224C157.94 62.752 157.204 60.8 157.204 58.368V40.032C157.204 37.6 157.94 35.664 159.412 34.224C160.884 32.752 162.852 32.016 165.316 32.016C167.78 32.016 169.748 32.752 171.22 34.224C172.724 35.696 173.476 37.648 173.476 40.08V42.144C173.476 42.464 173.316 42.624 172.996 42.624H170.548C170.228 42.624 170.068 42.464 170.068 42.144V39.984C170.068 38.48 169.636 37.28 168.772 36.384C167.908 35.456 166.756 34.992 165.316 34.992C163.908 34.992 162.756 35.456 161.86 36.384C160.996 37.312 160.564 38.512 160.564 39.984V58.416C160.564 59.888 160.996 61.088 161.86 62.016C162.756 62.944 163.908 63.408 165.316 63.408C166.756 63.408 167.908 62.96 168.772 62.064C169.636 61.136 170.068 59.92 170.068 58.416V52.272C170.068 52.144 170.004 52.08 169.876 52.08H165.748C165.428 52.08 165.268 51.92 165.268 51.6V49.584C165.268 49.264 165.428 49.104 165.748 49.104H172.996C173.316 49.104 173.476 49.264 173.476 49.584V58.368C173.476 60.8 172.724 62.752 171.22 64.224C169.748 65.664 167.78 66.384 165.316 66.384ZM186.787 66.384C184.323 66.384 182.323 65.616 180.787 64.08C179.283 62.544 178.531 60.512 178.531 57.984V40.416C178.531 37.888 179.283 35.856 180.787 34.32C182.323 32.784 184.323 32.016 186.787 32.016C189.283 32.016 191.299 32.784 192.835 34.32C194.371 35.856 195.139 37.888 195.139 40.416V57.984C195.139 60.48 194.371 62.512 192.835 64.08C191.299 65.616 189.283 66.384 186.787 66.384ZM186.787 63.408C188.259 63.408 189.443 62.928 190.339 61.968C191.267 60.976 191.731 59.712 191.731 58.176V40.272C191.731 38.704 191.267 37.44 190.339 36.48C189.443 35.488 188.259 34.992 186.787 34.992C185.347 34.992 184.179 35.488 183.283 36.48C182.387 37.44 181.939 38.704 181.939 40.272V58.176C181.939 59.712 182.387 60.976 183.283 61.968C184.179 62.928 185.347 63.408 186.787 63.408ZM208.677 66.384C206.213 66.384 204.213 65.616 202.677 64.08C201.173 62.544 200.421 60.512 200.421 57.984V40.416C200.421 37.888 201.173 35.856 202.677 34.32C204.213 32.784 206.213 32.016 208.677 32.016C211.173 32.016 213.189 32.784 214.725 34.32C216.261 35.856 217.029 37.888 217.029 40.416V57.984C217.029 60.48 216.261 62.512 214.725 64.08C213.189 65.616 211.173 66.384 208.677 66.384ZM208.677 63.408C210.149 63.408 211.333 62.928 212.229 61.968C213.157 60.976 213.621 59.712 213.621 58.176V40.272C213.621 38.704 213.157 37.44 212.229 36.48C211.333 35.488 210.149 34.992 208.677 34.992C207.237 34.992 206.069 35.488 205.173 36.48C204.277 37.44 203.829 38.704 203.829 40.272V58.176C203.829 59.712 204.277 60.976 205.173 61.968C206.069 62.928 207.237 63.408 208.677 63.408ZM223.608 66C223.288 66 223.128 65.84 223.128 65.52V32.88C223.128 32.56 223.288 32.4 223.608 32.4H231C233.464 32.4 235.432 33.216 236.904 34.848C238.376 36.448 239.112 38.608 239.112 41.328V57.072C239.112 59.792 238.376 61.968 236.904 63.6C235.432 65.2 233.464 66 231 66H223.608ZM226.536 62.832C226.536 62.96 226.6 63.024 226.728 63.024L230.952 62.976C232.36 62.976 233.48 62.432 234.312 61.344C235.176 60.256 235.624 58.784 235.656 56.928V41.472C235.656 39.584 235.24 38.096 234.408 37.008C233.576 35.92 232.424 35.376 230.952 35.376H226.728C226.6 35.376 226.536 35.44 226.536 35.568V62.832ZM271.466 56.88C271.498 59.76 270.73 62 269.162 63.6C267.594 65.2 265.498 66 262.874 66H255.53C255.21 66 255.05 65.84 255.05 65.52V32.88C255.05 32.56 255.21 32.4 255.53 32.4H262.442C265.194 32.4 267.354 33.168 268.922 34.704C270.49 36.208 271.274 38.368 271.274 41.184C271.274 44.768 269.946 47.216 267.29 48.528C267.226 48.56 267.194 48.592 267.194 48.624C267.194 48.656 267.21 48.688 267.242 48.72C270.058 50.352 271.466 53.072 271.466 56.88ZM258.65 35.376C258.522 35.376 258.458 35.44 258.458 35.568V47.136C258.458 47.264 258.522 47.328 258.65 47.328H262.442C264.17 47.328 265.514 46.816 266.474 45.792C267.434 44.768 267.914 43.328 267.914 41.472C267.914 39.552 267.434 38.064 266.474 37.008C265.514 35.92 264.17 35.376 262.442 35.376H258.65ZM262.634 62.976C264.33 62.976 265.658 62.416 266.618 61.296C267.578 60.144 268.058 58.544 268.058 56.496C268.058 54.416 267.578 52.8 266.618 51.648C265.658 50.496 264.33 49.92 262.634 49.92H258.65C258.522 49.92 258.458 49.984 258.458 50.112V62.784C258.458 62.912 258.522 62.976 258.65 62.976H262.634ZM290.052 66C289.764 66 289.572 65.872 289.476 65.616L284.532 50.688C284.5 50.592 284.436 50.544 284.34 50.544H280.212C280.084 50.544 280.02 50.608 280.02 50.736V65.52C280.02 65.84 279.86 66 279.54 66H277.092C276.772 66 276.612 65.84 276.612 65.52V32.832C276.612 32.512 276.772 32.352 277.092 32.352H285.012C287.348 32.352 289.236 33.2 290.676 34.896C292.116 36.592 292.836 38.816 292.836 41.568C292.836 43.68 292.388 45.488 291.492 46.992C290.596 48.496 289.38 49.536 287.844 50.112C287.716 50.144 287.668 50.224 287.7 50.352L292.932 65.472L292.98 65.664C292.98 65.888 292.836 66 292.548 66H290.052ZM280.212 35.328C280.084 35.328 280.02 35.392 280.02 35.52V47.616C280.02 47.744 280.084 47.808 280.212 47.808H284.532C286.004 47.808 287.188 47.248 288.084 46.128C288.98 44.976 289.428 43.472 289.428 41.616C289.428 39.696 288.98 38.176 288.084 37.056C287.188 35.904 286.004 35.328 284.532 35.328H280.212ZM313.11 34.896C313.11 35.216 312.95 35.376 312.63 35.376H301.493C301.366 35.376 301.302 35.44 301.302 35.568V47.472C301.302 47.6 301.366 47.664 301.493 47.664H308.502C308.822 47.664 308.982 47.824 308.982 48.144V50.208C308.982 50.528 308.822 50.688 308.502 50.688H301.493C301.366 50.688 301.302 50.752 301.302 50.88V62.832C301.302 62.96 301.366 63.024 301.493 63.024H312.63C312.95 63.024 313.11 63.184 313.11 63.504V65.52C313.11 65.84 312.95 66 312.63 66H298.374C298.054 66 297.894 65.84 297.894 65.52V32.88C297.894 32.56 298.054 32.4 298.374 32.4H312.63C312.95 32.4 313.11 32.56 313.11 32.88V34.896ZM323.272 66C322.984 66 322.808 65.856 322.744 65.568L316.408 32.928V32.832C316.408 32.544 316.552 32.4 316.84 32.4H319.384C319.704 32.4 319.88 32.544 319.912 32.832L324.424 58.08C324.456 58.144 324.488 58.176 324.52 58.176C324.552 58.176 324.584 58.144 324.616 58.08L328.504 32.832C328.568 32.544 328.728 32.4 328.984 32.4H331.192C331.48 32.4 331.64 32.544 331.672 32.832L335.752 58.08C335.784 58.144 335.816 58.176 335.848 58.176C335.88 58.176 335.912 58.144 335.944 58.08L340.072 32.832C340.136 32.544 340.296 32.4 340.552 32.4H343.096C343.256 32.4 343.368 32.448 343.432 32.544C343.528 32.64 343.56 32.768 343.528 32.928L337.576 65.568C337.544 65.856 337.368 66 337.048 66H334.696C334.44 66 334.28 65.856 334.216 65.568L330.184 40.224C330.152 40.16 330.104 40.128 330.04 40.128C330.008 40.128 329.992 40.16 329.992 40.224L326.056 65.568C326.024 65.856 325.864 66 325.576 66H323.272Z" fill="#FF520B"/>
<line x1="3.58514" y1="21.5001" x2="56.537" y2="21.5001" stroke="#FF520B" stroke-width="3"/>
<line x1="2.54686" y1="87.5" x2="57.5752" y2="87.5001" stroke="#FF520B" stroke-width="3"/>
<path d="M1.50859 9.39491C22.7103 -9.32298 31.1909 13.9505 57.5753 9.3949" stroke="#FF520B" stroke-width="3"/>
<path d="M56 31.5C66.1984 31.4767 67.9323 39.046 67.958 49.5C67.9837 59.954 63.6206 65.4767 53.4222 65.5" stroke="#FF520B" stroke-width="3"/>
<path d="M1.50859 88C13.6632 55.6085 4.8712 45.8256 1.50859 9" stroke="#FF520B" stroke-width="3"/>
<path d="M57.5753 89C47.4464 56.1985 54.7731 46.2918 57.5753 9" stroke="#FF520B" stroke-width="3"/>
<line x1="19.7357" y1="78" x2="19.7357" y2="30" stroke="#FF520B" stroke-width="3"/>
<line x1="40.5012" y1="78" x2="40.5012" y2="30" stroke="#FF520B" stroke-width="3"/>
</svg>
